<svg xmlns="http://www.w3.org/2000/svg" version="1.1" viewBox="-5.0 -10.0 110.0 135.0">
 <path d="m52.852 74.152c-0.46484-0.72656-1.4336-0.93359-2.1602-0.46484-0.72266 0.46875-0.92969 1.4375-0.46484 2.1641v-0.003906c1.4609 2.2773 3.0586 4.4648 4.7891 6.5469 0.3125 0.37891 0.30078 0.92969-0.027344 1.293l-1.6172 1.793-0.003906 0.003906c-0.33594 0.375-0.90625 0.43359-1.3164 0.14062-4.1328-2.9766-7.6445-6.7305-10.332-11.055 1.2266-0.375 1.4141-0.57031 6.6055-3.5664l0.003906-0.003906c1.7266-0.99609 3.0312-2.5938 3.6641-4.4922 2.7031-0.88672 4.5273-3.6406 3.6445-6.5625 4.7305-1.6133 9.625-2.1484 14.902-1.6484 2.0586 0.19531 2.3594-2.9141 0.29688-3.1094-5.8906-0.56641-11.348 0.074219-16.637 1.9531l-9.1953-15.93c5.4844-4.6875 9.4297-10.781 11.984-18.527l21.301 36.887c3.5312 6.1172 12.832 0.83203 9.2656-5.3477l-6.0547-10.484 1.4141-1.5156-0.003906 0.003906c1.8867-2.0078 2.2344-5.0195 0.84766-7.3984l-4.6562-8.0703c-1.3672-2.3945-4.1523-3.6055-6.8359-2.9688l-2.0156 0.46875-6.0547-10.484c-3.5156-6.0781-12.637-0.9375-9.3594 5.1719-2.2969 8.4766-5.9922 14.766-11.539 19.609-3.9062-4.1719-11.273 0.42969-8.8359 5.9102l-11.719 6.7656h-0.003907c-2.4766 1.4258-3.6719 4.3516-2.8984 7.1055l-0.24219 0.14062c-7.957 4.5898-1.043 16.637 6.9492 12.031l0.24219-0.14062h-0.003906c1.6289 1.6602 4.0391 2.2852 6.2695 1.6172 1.3086 1.5781 3.1641 2.6055 5.1992 2.875 2.9883 5.2383 7.0703 9.7773 11.969 13.301h-0.003906c1.707 1.2305 4.0664 0.98047 5.4688-0.58594l1.6172-1.793c1.3711-1.5273 1.4141-3.8242 0.10156-5.3984-1.6445-1.9844-3.1641-4.0625-4.5547-6.2305zm20.117-47.312v0.003906c1.3477-0.32031 2.7383 0.28125 3.4297 1.4766l4.6562 8.0664c0.69531 1.1953 0.52344 2.7031-0.42188 3.7109l-0.76562 0.8125-7.9766-13.812zm-11.469-11.496 23.344 40.438c1.4766 2.5625-2.3438 4.8281-3.8516 2.2227l-23.125-40.055c-1.9258-3.3398 2.25-5 3.6328-2.6055zm-20.094 25.891 10.953 18.977c1.5078 2.6094-2.4023 4.9375-3.9414 2.2734l-10.953-18.977c-1.4922-2.5938 2.4336-4.8906 3.9414-2.2734zm-20.172 19.898 3.8203 6.6172c-4.5156 2.6133-8.2891-4.0312-3.8203-6.6172zm14.719 9.375 6.0391-3.4922c1.7891-1.0352 0.22656-3.7383-1.5625-2.707l-7.6016 4.3906c-1.3906 0.80469-3.1641 0.42578-4.1016-0.87891l3.3594-1.9375c1.7891-1.0312 0.22656-3.7383-1.5625-2.707l-3.3711 1.9531-2.5938-4.4844 7.0117-4.0469c1.7891-1.0352 0.22656-3.7383-1.5625-2.707l-7 4.0391c-0.66016-1.4648-0.10156-3.1914 1.293-3.9961l11.688-6.7461 9.7344 16.859c0.74219 1.2891 1.7578 2.0781 2.8516 2.4609-0.44141 0.74219-1.0664 1.3555-1.8086 1.7891l-4.8984 2.8281c-1.8945 1.0977-4.2852 0.84766-5.9141-0.61719z"/>
 <path d="m76.656 78.145c0-1.1719 2.9102-1.8008 3.9414-0.45312 1.2578 1.6406 3.7383-0.25781 2.4805-1.8984l-0.003906-0.003907c-0.70312-0.89844-1.6914-1.5312-2.8008-1.7891v-0.73828c0-2.0703-3.125-2.0703-3.125 0v0.76172c-2.0547 0.52344-3.625 2.0625-3.625 4.1328 0 5.2734 7.2422 3.5859 7.2422 5.5508 0 1.1719-2.9141 1.793-3.9414 0.45312-1.2578-1.6406-3.7383 0.25781-2.4805 1.8984 0.70312 0.89844 1.6914 1.5273 2.8047 1.7852v0.73438c0 2.0664 3.125 2.0664 3.125 0v-0.75781c2.0781-0.53125 3.6172-2.0859 3.6172-4.125 0.003906-5.2812-7.2344-3.582-7.2344-5.5508z"/>
 <path d="m94.617 79.664c-0.80469-10.602-11.68-17.469-21.609-13.656l-3.6484-0.53906 0.003906 0.007812c-1.4219-0.21094-2.8594 0.24219-3.9023 1.2305-1.043 0.98438-1.5781 2.3945-1.4492 3.8242l0.3125 3.4766v0.003907c-2.4023 5.0156-2.0195 10.914 1.0039 15.582 3.0273 4.6641 8.2578 7.418 13.816 7.2695 9.2969-0.23828 16.148-8.3555 15.473-17.199zm-15.555 14.086c-9.8789 0.26172-16.168-10.18-11.75-18.715h-0.003906c0.13672-0.26562 0.19531-0.5625 0.16797-0.85938l-0.35156-3.918c-0.042969-0.47656 0.13281-0.94922 0.48047-1.2773 0.34766-0.32812 0.82812-0.48047 1.3008-0.41016l4.0625 0.60156c0.28125 0.039063 0.56641 0.003906 0.82812-0.10547 8.0391-3.3359 17.047 2.1875 17.703 10.84 0.5625 7.3008-5.1484 13.648-12.438 13.844z"/>
 <path d="m36.438 28.711 3.582 0.97656c0.58984 0.16016 1.2188-0.035156 1.6094-0.50391 0.39453-0.46484 0.47656-1.1211 0.21484-1.6719l-5.3672-11.328v-6.8086c0-1.6562-0.66016-3.2461-1.832-4.418s-2.7617-1.832-4.418-1.832h-18.641c-3.4531 0-6.25 2.7969-6.25 6.25v18.641c0 1.6602 0.65625 3.25 1.8281 4.4219 1.1719 1.1719 2.7617 1.8281 4.4219 1.8281h18.641c3.1836 0 5.8594-2.3906 6.2109-5.5547zm-27.977-0.69531v-18.641c0-1.7266 1.3984-3.125 3.125-3.125h18.641c0.82813 0 1.625 0.32812 2.2109 0.91406 0.58594 0.58594 0.91406 1.3828 0.91406 2.2109v7.1758c0 0.23047 0.050782 0.46094 0.14844 0.66797l4.0625 8.5625-2.2344-0.60938c-0.46875-0.13281-0.97266-0.035156-1.3594 0.26172-0.39062 0.29688-0.61719 0.75391-0.61719 1.2422v1.3359c0 0.82812-0.32812 1.625-0.91406 2.2109-0.58594 0.58594-1.3828 0.91406-2.2109 0.91406h-18.641c-1.7266 0-3.125-1.3945-3.125-3.1211z"/>
 <path d="m25.812 14.906c0.84375-3.2891-0.73438-5.5859-4.0078-5.5859h-1.7969c-3.1133 0-4.4922 2.375-3.9219 5.5312l-0.003907-0.003906c-2.2422 1.5625-3.5742 4.1289-3.5664 6.8633 0 9.2891 16.773 9.2422 16.773 0h0.003907c0.011719-2.6953-1.2852-5.2344-3.4805-6.8047zm-10.172 6.8047c-0.003906-2.0039 1.1367-3.8359 2.9375-4.7188 0.71094-0.35156 1.0469-1.1758 0.78125-1.9219-0.35547-1.0078-0.69531-2.625 0.64844-2.625h1.7969c0.82031 0 1.7695 0.125 0.69922 2.5l-0.003906-0.003906c-0.34766 0.76953-0.019531 1.6797 0.74219 2.0508 1.8008 0.88281 2.9375 2.7148 2.9297 4.7188 0 5.1172-10.531 5.1172-10.531 0z"/>
<text x="0.0" y="117.5" font-size="5.0" font-weight="bold" font-family="Arbeit Regular, Helvetica, Arial-Unicode, Arial, Sans-serif" fill="#000000">Created by omeneko</text><text x="0.0" y="122.5" font-size="5.0" font-weight="bold" font-family="Arbeit Regular, Helvetica, Arial-Unicode, Arial, Sans-serif" fill="#000000">from Noun Project</text></svg>